# xmcd
#
# Track frame offsets: 
#        150
#        19800
#        39395
#        63327
#        74765
#        87850
#        128925
#        153027
#        171125
#        192172
#        216175
#
# Disc length: 3097 seconds
#
# Revision: 2
# Processed by: cddbd v1.5.2PL0 Copyright (c) Steve Scherf et al.
# Submitted via: ExactAudioCopy v1.0b3
#
DISCID=940c170b
DTITLE=Claudio Gabis Y La Selección - Convocatoria II
DYEAR=1997
DGENRE=Rock
TTITLE0=Nena Boba
TTITLE1=No Pibe
TTITLE2=Maradona Blues
TTITLE3=Boogie De Claudio
TTITLE4=Para Que Nos Sirve
TTITLE5=Avellaneda Blues
TTITLE6=Buenos Aires Shuffle
TTITLE7=En El Fondo Del Mar
TTITLE8=Bluguala De La Salina Grande
TTITLE9=Cuando Quieras Encontrarme
TTITLE10=El Vuelo De Tu Falda
EXTD=
EXTT0=Fito Paez
EXTT1=Claudia Puy 
EXTT2=Charly Garc a
EXTT3=Andres Calamaro y Alejo Estivel
EXTT4=Alejandro Medina
EXTT5=Leon Gieco
EXTT6=Moris
EXTT7=Tedy Bautista
EXTT8=Instrumental
EXTT9=Luz Casal
EXTT10=Pedro Guerra
PLAYORDER=
